<svg xmlns="http://www.w3.org/2000/svg" width="125.33" height="118.52" viewBox="0 0 125.33 118.52">
  <title>audio-active</title>
  <g id="Слой_2" data-name="Слой 2">
    <g id="Слой_1-2" data-name="Слой 1">
      <g>
        <path d="M67.25,118.52c-32,0-58.08-26.58-58.08-59.26a59.83,59.83,0,0,1,5.21-24.58,1.46,1.46,0,0,1,2.67,1.2,56.89,56.89,0,0,0-5,23.38c0,31.07,24.74,56.34,55.16,56.34S122.4,90.33,122.4,59.26,97.66,2.92,67.25,2.92a54.79,54.79,0,0,0-40.7,18.31,1.46,1.46,0,1,1-2.18-1.95A57.73,57.73,0,0,1,67.25,0c32,0,58.08,26.58,58.08,59.26S99.27,118.52,67.25,118.52Z" fill="#d5274e"/>
        <g>
          <path d="M91.85,59.47V50.84a1.41,1.41,0,1,0-2.82,0v8.63a21.79,21.79,0,0,1-43.57,0V50.84a1.41,1.41,0,1,0-2.82,0v8.63A24.66,24.66,0,0,0,62,83.51l-.88,6.62h-6a7,7,0,0,0-6.94,6.94,3.3,3.3,0,0,0,3.3,3.3H83a3.3,3.3,0,0,0,3.3-3.3,7,7,0,0,0-6.94-6.94h-6l-.88-6.62A24.66,24.66,0,0,0,91.85,59.47ZM64.76,84c.82.08,1.65.13,2.49.13s1.66,0,2.48-.13l.83,6.18H63.94Zm14.6,9a4.12,4.12,0,0,1,4.12,4.11.48.48,0,0,1-.48.48H51.49a.48.48,0,0,1-.48-.48A4.12,4.12,0,0,1,55.13,93Z" fill="#d5274e"/>
          <path d="M49.81,62.7l0-.09a1.38,1.38,0,0,0,2.68-.47,2,2,0,0,0,0-.35h0A15.89,15.89,0,0,1,52.25,59v-2.2h30V59A15,15,0,0,1,58,70.87,1.41,1.41,0,1,0,56.3,73.1a17.63,17.63,0,0,0,11,3.76A17.84,17.84,0,0,0,85.06,59V36a17.82,17.82,0,1,0-35.63,0V59a18,18,0,0,0,.38,3.66Zm2.44-13.79h9.32a1.41,1.41,0,1,0,0-2.82H52.25V42.35h9.32a1.41,1.41,0,1,0,0-2.82H52.25V35.78h9.32a1.41,1.41,0,1,0,0-2.82h-9a15,15,0,0,1,29.39,0h-9a1.41,1.41,0,1,0,0,2.82h9.32v3.75H72.92a1.41,1.41,0,1,0,0,2.82h9.32v3.74H72.92a1.41,1.41,0,1,0,0,2.82h9.32V54h-30Z" fill="#d5274e"/>
          <circle cx="53.61" cy="67.33" r="1.39" fill="#d5274e"/>
        </g>
      </g>
      <circle cx="18.8" cy="26.11" r="18.8" fill="#d5274e"/>
    </g>
  </g>
</svg>
