<svg xmlns="http://www.w3.org/2000/svg" width="97.54" height="99.52" viewBox="0 0 97.54 99.52">
  <title>audio</title>
  <g id="Слой_2" data-name="Слой 2">
    <g id="Слой_1-2" data-name="Слой 1">
      <g>
        <path d="M48.77,99.52C21.88,99.52,0,77.2,0,49.76A50.19,50.19,0,0,1,4.38,29.12a1.23,1.23,0,1,1,2.24,1A47.66,47.66,0,0,0,2.45,49.76c0,26.09,20.78,47.31,46.32,47.31S95.09,75.85,95.09,49.76,74.31,2.45,48.77,2.45A46,46,0,0,0,14.59,17.83a1.22,1.22,0,0,1-1.82-1.64A48.45,48.45,0,0,1,48.77,0C75.66,0,97.54,22.32,97.54,49.76S75.66,99.52,48.77,99.52Z" fill="#474747"/>
        <g>
          <path d="M69.43,49.94V42.69a1.19,1.19,0,0,0-2.37,0v7.25a18.29,18.29,0,0,1-36.58,0V42.69a1.19,1.19,0,0,0-2.37,0v7.25A20.69,20.69,0,0,0,44.34,70.12l-.74,5.56h-5a5.84,5.84,0,0,0-5.83,5.83,2.77,2.77,0,0,0,2.77,2.77H62a2.78,2.78,0,0,0,2.77-2.77,5.84,5.84,0,0,0-5.83-5.83h-5l-.74-5.56A20.69,20.69,0,0,0,69.43,49.94ZM46.68,70.49a19.91,19.91,0,0,0,4.18,0l.69,5.19H46Zm12.26,7.56a3.47,3.47,0,0,1,3.46,3.46.4.4,0,0,1-.4.4H35.54a.4.4,0,0,1-.4-.4,3.47,3.47,0,0,1,3.46-3.46Z" fill="#181818"/>
          <path d="M34.13,52.65a.24.24,0,0,0,0-.08,1.16,1.16,0,0,0,2.26-.39,1.35,1.35,0,0,0,0-.29h0a12.72,12.72,0,0,1-.21-2.31V47.73H61.36v1.84a12.61,12.61,0,0,1-12.59,12.6A12.48,12.48,0,0,1,41,59.51a1.18,1.18,0,1,0-1.45,1.87A15,15,0,0,0,63.73,49.57V30.2a15,15,0,1,0-29.92,0V49.57a15.12,15.12,0,0,0,.32,3.08Zm2-11.58H44a1.19,1.19,0,0,0,0-2.37H36.18V35.56H44a1.19,1.19,0,0,0,0-2.37H36.18V30.05H44a1.19,1.19,0,0,0,0-2.37H36.43a12.6,12.6,0,0,1,24.68,0H53.53a1.19,1.19,0,0,0,0,2.37h7.83v3.14H53.53a1.19,1.19,0,0,0,0,2.37h7.83V38.7H53.53a1.19,1.19,0,0,0,0,2.37h7.83v4.29H36.18Z" fill="#181818"/>
          <circle cx="37.32" cy="56.53" r="1.17" fill="#181818"/>
        </g>
      </g>
    </g>
  </g>
</svg>
