<svg xmlns="http://www.w3.org/2000/svg" width="938.34" height="131.98" viewBox="0 0 938.34 131.98">
  <title>city-bg</title>
  <g id="Слой_2" data-name="Слой 2">
    <g id="Слой_1-2" data-name="Слой 1">
      <path d="M925.9,132H12.44A12.45,12.45,0,0,1,0,119.54V28.76A12.45,12.45,0,0,1,12.44,16.33H23a.65.65,0,1,1,0,1.3H12.44A11.15,11.15,0,0,0,1.3,28.76v90.78a11.16,11.16,0,0,0,11.14,11.14H925.9A11.16,11.16,0,0,0,937,119.54V28.76A11.15,11.15,0,0,0,925.9,17.63h-727a.65.65,0,0,1,0-1.3h727a12.45,12.45,0,0,1,12.44,12.43v90.78A12.45,12.45,0,0,1,925.9,132Z" fill="#181818"/>
      <g>
        <path d="M58.9,1.17h-13V23.61H44.72V.14H58.94Z" fill="#898888"/>
        <path d="M63.78,22.2a11.31,11.31,0,0,1-4.34-4.26,11.86,11.86,0,0,1-1.57-6.07A11.89,11.89,0,0,1,59.44,5.8a11.31,11.31,0,0,1,4.34-4.26,13.23,13.23,0,0,1,12.39,0A11.23,11.23,0,0,1,80.53,5.8a11.9,11.9,0,0,1,1.58,6.07,11.87,11.87,0,0,1-1.58,6.07,11.23,11.23,0,0,1-4.36,4.26,13.23,13.23,0,0,1-12.39,0Zm11.79-.91a10.35,10.35,0,0,0,4-3.89A10.81,10.81,0,0,0,81,11.87a10.81,10.81,0,0,0-1.44-5.53,10.35,10.35,0,0,0-4-3.89A11.25,11.25,0,0,0,70,1a11.12,11.12,0,0,0-5.58,1.41,10.3,10.3,0,0,0-3.94,3.89A10.81,10.81,0,0,0,59,11.87a10.81,10.81,0,0,0,1.44,5.53,10.3,10.3,0,0,0,3.94,3.89A11.12,11.12,0,0,0,70,22.7,11.25,11.25,0,0,0,75.57,21.29Z" fill="#898888"/>
        <path d="M103.75,2.2a7,7,0,0,1,2.47,5.71,7.06,7.06,0,0,1-2.47,5.75,10.34,10.34,0,0,1-6.85,2.07h-7v7.88H88.75V.14H96.9A10.34,10.34,0,0,1,103.75,2.2ZM103,12.93a6.17,6.17,0,0,0,2.11-5,6.13,6.13,0,0,0-2.11-5,9.22,9.22,0,0,0-6-1.76H89.89V14.69H97A9.22,9.22,0,0,0,103,12.93Z" fill="#898888"/>
        <path d="M116,22.2a11.31,11.31,0,0,1-4.34-4.26,11.86,11.86,0,0,1-1.57-6.07,11.89,11.89,0,0,1,1.57-6.07A11.31,11.31,0,0,1,116,1.54a13.23,13.23,0,0,1,12.39,0,11.23,11.23,0,0,1,4.36,4.26,11.9,11.9,0,0,1,1.58,6.07,11.87,11.87,0,0,1-1.58,6.07,11.23,11.23,0,0,1-4.36,4.26,13.23,13.23,0,0,1-12.39,0Zm11.79-.91a10.28,10.28,0,0,0,4-3.89,10.81,10.81,0,0,0,1.44-5.53,10.81,10.81,0,0,0-1.44-5.53,10.28,10.28,0,0,0-4-3.89A11.25,11.25,0,0,0,122.21,1a11.12,11.12,0,0,0-5.58,1.41,10.3,10.3,0,0,0-3.94,3.89,10.81,10.81,0,0,0-1.44,5.53,10.81,10.81,0,0,0,1.44,5.53,10.3,10.3,0,0,0,3.94,3.89,11.12,11.12,0,0,0,5.58,1.41A11.25,11.25,0,0,0,127.81,21.29Z" fill="#898888"/>
        <path d="M160.67,22.57v6.5h-1.11V23.61H137.3l0,5.46h-1.08l0-6.5h1.3c1.57-.14,2.67-1.47,3.29-4A52.83,52.83,0,0,0,142,7.91L142.2.14H157V22.57Zm-18.58-4.86c-.46,2.5-1.27,4.12-2.41,4.86h16.2V1.17H143.23L143,8A66.24,66.24,0,0,1,142.09,17.71Z" fill="#898888"/>
      </g>
    </g>
  </g>
</svg>
