<svg xmlns="http://www.w3.org/2000/svg" width="938.34" height="115.65" viewBox="0 0 938.34 115.65">
  <title>company-bg</title>
  <g id="Слой_2" data-name="Слой 2">
    <g id="Слой_1-2" data-name="Слой 1">
      <path d="M925.9,115.65H12.44A12.45,12.45,0,0,1,0,103.21V12.44A12.45,12.45,0,0,1,12.44,0H23a.65.65,0,1,1,0,1.3H12.44A11.16,11.16,0,0,0,1.3,12.44v90.77a11.16,11.16,0,0,0,11.14,11.14H925.9A11.16,11.16,0,0,0,937,103.21V12.44A11.16,11.16,0,0,0,925.9,1.3H285.09a.65.65,0,0,1,0-1.3H925.9a12.45,12.45,0,0,1,12.44,12.44v90.77A12.45,12.45,0,0,1,925.9,115.65Z" fill="#181818"/>
    </g>
  </g>
</svg>
