<svg xmlns="http://www.w3.org/2000/svg" width="938.34" height="130.98" viewBox="0 0 938.34 130.98">
  <title>company-active</title>
  <g id="Слой_2" data-name="Слой 2">
    <g id="Слой_1-2" data-name="Слой 1">
      <g>
        <path d="M925.9,131H12.44A12.45,12.45,0,0,1,0,118.54V27.76A12.45,12.45,0,0,1,12.44,15.33H23a.65.65,0,0,1,0,1.3H12.44A11.15,11.15,0,0,0,1.3,27.76v90.78a11.16,11.16,0,0,0,11.14,11.14H925.9A11.16,11.16,0,0,0,937,118.54V27.76A11.15,11.15,0,0,0,925.9,16.63H285.09a.65.65,0,0,1,0-1.3H925.9a12.45,12.45,0,0,1,12.44,12.43v90.78A12.45,12.45,0,0,1,925.9,131Z" fill="#5670a9"/>
        <path d="M260.59,5.33h2.65V8.1h-2.65Zm0,10.66h2.65v2.77h-2.65Z" fill="#898888"/>
      </g>
      <g>
        <path d="M51.62,12H45.84V23.14H44.72V.13h1.12V11h5.78L60.27.13h1.28l-9,11.24,9.67,11.77H60.86Z" fill="#898888"/>
        <path d="M70.18,21.76a11.08,11.08,0,0,1-4.26-4.17,11.65,11.65,0,0,1-1.54-5.95,11.63,11.63,0,0,1,1.54-5.95,11,11,0,0,1,4.26-4.18,13,13,0,0,1,12.15,0A11,11,0,0,1,86.6,5.69a11.63,11.63,0,0,1,1.54,6,11.65,11.65,0,0,1-1.54,5.95,11,11,0,0,1-4.27,4.17,13,13,0,0,1-12.15,0Zm11.55-.89a10.07,10.07,0,0,0,3.88-3.81A10.52,10.52,0,0,0,87,11.64a10.53,10.53,0,0,0-1.42-5.43A10.07,10.07,0,0,0,81.73,2.4a11.57,11.57,0,0,0-11,0,10.16,10.16,0,0,0-3.86,3.81,10.62,10.62,0,0,0-1.41,5.43,10.61,10.61,0,0,0,1.41,5.42,10.16,10.16,0,0,0,3.86,3.81,11.57,11.57,0,0,0,11,0Z" fill="#898888"/>
        <path d="M116.58,23.14l0-20.74L106.45,20h-.59L95.74,2.47V23.14H94.65V.13h.92l10.59,18.41L116.71.13h.92l0,23Z" fill="#898888"/>
        <path d="M145,.13v23h-1.12v-22h-16.4v22h-1.12V.13Z" fill="#898888"/>
        <path d="M168.09,16.4H154.31l-3.09,6.74H150l10.65-23h1.08l10.65,23h-1.21Zm-.43-.95-6.44-14-6.48,14Z" fill="#898888"/>
        <path d="M195.8.13v23h-1.12V12H178.54V23.14h-1.12V.13h1.12V11h16.14V.13Z" fill="#898888"/>
        <path d="M204.47.13h1.12V21.2L222,.13h.92v23h-1.08V2.07L205.39,23.14h-.92Z" fill="#898888"/>
        <path d="M247,.13v23h-1.09V15.71h-7.69a11.25,11.25,0,0,1-1.87-.13l-5.29,7.56h-1.22l5.46-7.76a6.79,6.79,0,0,1-4-2.56,7.91,7.91,0,0,1-1.4-4.8,7.34,7.34,0,0,1,2.34-5.83A9.25,9.25,0,0,1,238.56.13ZM232.87,13a7.71,7.71,0,0,0,5.46,1.75h7.59V1.15h-7.26A8.28,8.28,0,0,0,233,2.91,6.45,6.45,0,0,0,231,8,6.42,6.42,0,0,0,232.87,13Z" fill="#898888"/>
      </g>
    </g>
  </g>
</svg>
