<svg xmlns="http://www.w3.org/2000/svg" width="112.14" height="98.97" viewBox="0 0 112.14 98.97">
  <title>upload-audio-2</title>
  <g id="Слой_2" data-name="Слой 2">
    <g id="Слой_1-2" data-name="Слой 1">
      <g>
        <g>
          <path d="M39.12,63V58.08a1.2,1.2,0,0,0-2.39,0V63Z" fill="#d5274e"/>
          <path d="M39.12,42.15V47a1.2,1.2,0,0,1-2.39,0V42.17Z" fill="#d5274e"/>
          <circle cx="37.93" cy="52.48" r="1.17" fill="#d5274e"/>
        </g>
        <g id="surface1">
          <path d="M75.86,45.57V34.71a1.3,1.3,0,0,0-.35-.83L63.33,21.09a1.21,1.21,0,0,0-.87-.37H43.15a6.44,6.44,0,0,0-6.42,6.48v19h2.4v-19a4,4,0,0,1,4-4.08H61.26v7.52a5.28,5.28,0,0,0,5.27,5.28h6.94v9.34c-.36,0-.65,0-1,0A16.69,16.69,0,0,0,61.6,49.33H46.4a1.2,1.2,0,0,0,0,2.39h13a19.27,19.27,0,0,0-2.1,3.71H46.4a1.2,1.2,0,0,0,0,2.4H56.49a16.29,16.29,0,0,0,.72,9.93H43.15v0a4,4,0,0,1-4-4V59.33h-2.4v4.37a6.4,6.4,0,0,0,6.42,6.43H58.39A16.46,16.46,0,1,0,75.86,45.57Zm-9.33-12a2.89,2.89,0,0,1-2.87-2.88V24.92l8.17,8.6Zm6,42.23a14.06,14.06,0,1,1,14-14.06A14.07,14.07,0,0,1,72.5,75.75Z" fill="#d5274e"/>
          <path d="M46.4,45.73H58.52a1.2,1.2,0,1,0,0-2.39H46.4a1.2,1.2,0,0,0,0,2.39Z" fill="#d5274e"/>
          <path d="M78.62,61.44l-4.91,5.3V53.67a1.2,1.2,0,0,0-2.4,0V66.74l-5-5.3a1.2,1.2,0,0,0-1.76,1.63l7,7.52a1.2,1.2,0,0,0,1.75,0l7-7.52a1.19,1.19,0,1,0-1.74-1.63Z" fill="#d5274e"/>
        </g>
      </g>
      <path d="M60.17,99c-28.66,0-52-22.2-52-49.49A47.08,47.08,0,0,1,12.87,29a1.35,1.35,0,0,1,1.72-.62A1.19,1.19,0,0,1,15.25,30a44.87,44.87,0,0,0-4.44,19.52c0,25.94,22.14,47.05,49.36,47.05s49.35-21.11,49.35-47.05-22.14-47-49.35-47A50.62,50.62,0,0,0,23.75,17.73a1.37,1.37,0,0,1-1.84.09,1.15,1.15,0,0,1-.1-1.72A53.31,53.31,0,0,1,60.17,0c28.65,0,52,22.2,52,49.48S88.82,99,60.17,99Z" fill="#d5274e"/>
      <ellipse cx="16.82" cy="21.8" rx="16.82" ry="15.7" fill="#d5274e"/>
    </g>
  </g>
</svg>
