<svg xmlns="http://www.w3.org/2000/svg" width="97.54" height="99.52" viewBox="0 0 97.54 99.52">
  <title>upload-audio</title>
  <g id="Слой_2" data-name="Слой 2">
    <g id="Слой_1-2" data-name="Слой 1">
      <path d="M48.77,99.52C21.88,99.52,0,77.2,0,49.76A50.19,50.19,0,0,1,4.38,29.12a1.23,1.23,0,1,1,2.24,1A47.66,47.66,0,0,0,2.45,49.76c0,26.09,20.78,47.31,46.32,47.31S95.09,75.85,95.09,49.76,74.31,2.45,48.77,2.45A46,46,0,0,0,14.59,17.83a1.22,1.22,0,0,1-1.82-1.64A48.45,48.45,0,0,1,48.77,0C75.66,0,97.54,22.32,97.54,49.76S75.66,99.52,48.77,99.52Z" fill="#474747"/>
      <g>
        <g>
          <path d="M29,65.31V60.42a1.19,1.19,0,0,0-2.38,0v4.87Z" fill="#181818"/>
          <path d="M29,44.49v4.88a1.19,1.19,0,0,1-2.38,0V44.5Z" fill="#181818"/>
          <circle cx="27.85" cy="54.81" r="1.17" fill="#181818"/>
        </g>
        <g id="surface1">
          <path d="M65.78,47.91V37.05a1.25,1.25,0,0,0-.35-.83L53.25,23.43a1.19,1.19,0,0,0-.87-.37H33.07a6.43,6.43,0,0,0-6.41,6.47v19h2.39v-19a4,4,0,0,1,4-4.08H51.18V33a5.27,5.27,0,0,0,5.27,5.27h6.94V47.6c-.36,0-.65-.05-1-.05a16.64,16.64,0,0,0-10.91,4.12H36.32a1.2,1.2,0,0,0,0,2.39h13a19,19,0,0,0-2.1,3.71H36.32a1.2,1.2,0,0,0,0,2.39H46.41A16.11,16.11,0,0,0,46,64a15.8,15.8,0,0,0,1.17,6.08H33.07a4,4,0,0,1-4-4V61.67H26.66v4.38a6.39,6.39,0,0,0,6.41,6.42H48.31A16.45,16.45,0,1,0,65.78,47.91Zm-9.33-12A2.89,2.89,0,0,1,53.58,33V27.26l8.17,8.6Zm6,42.22A14.06,14.06,0,1,1,76.48,64,14.07,14.07,0,0,1,62.42,78.08Z" fill="#181818"/>
          <path d="M36.32,48.07H48.44a1.2,1.2,0,1,0,0-2.4H36.32a1.2,1.2,0,0,0,0,2.4Z" fill="#181818"/>
          <path d="M68.54,63.77l-4.91,5.3V56a1.2,1.2,0,0,0-2.4,0V69.07l-4.95-5.3a1.22,1.22,0,0,0-1.7-.06,1.2,1.2,0,0,0-.06,1.69l7,7.53a1.2,1.2,0,0,0,1.75,0l7-7.53a1.19,1.19,0,1,0-1.74-1.63Z" fill="#181818"/>
        </g>
      </g>
    </g>
  </g>
</svg>
