<svg xmlns="http://www.w3.org/2000/svg" width="106.52" height="99.52" viewBox="0 0 106.52 99.52">
  <title>upload-audio_2</title>
  <g id="Слой_2" data-name="Слой 2">
    <g id="Слой_1-2" data-name="Слой 1">
      <path d="M57.75,99.52C30.85,99.52,9,77.2,9,49.76a50.19,50.19,0,0,1,4.38-20.64A1.24,1.24,0,0,1,15,28.5a1.25,1.25,0,0,1,.62,1.63,47.66,47.66,0,0,0-4.17,19.63c0,26.09,20.78,47.31,46.32,47.31s46.31-21.22,46.31-47.31S83.29,2.45,57.75,2.45A46,46,0,0,0,23.57,17.83a1.23,1.23,0,0,1-1.83-1.64A48.49,48.49,0,0,1,57.75,0c26.89,0,48.77,22.32,48.77,49.76S84.64,99.52,57.75,99.52Z" fill="#d5274e"/>
      <g>
        <g>
          <path d="M38,65.31V60.42a1.2,1.2,0,0,0-2.39,0v4.87Z" fill="#d5274e"/>
          <path d="M38,44.49v4.88a1.2,1.2,0,0,1-2.39,0V44.5Z" fill="#d5274e"/>
          <circle cx="36.83" cy="54.81" r="1.17" fill="#d5274e"/>
        </g>
        <g id="surface1">
          <path d="M74.76,47.91V37.05a1.3,1.3,0,0,0-.35-.83L62.23,23.43a1.21,1.21,0,0,0-.87-.37H42.05a6.44,6.44,0,0,0-6.42,6.47v19H38v-19a4,4,0,0,1,4-4.08H60.16V33a5.27,5.27,0,0,0,5.27,5.27h6.93V47.6c-.35,0-.64-.05-1-.05A16.64,16.64,0,0,0,60.5,51.67H45.3a1.2,1.2,0,1,0,0,2.39h13a19,19,0,0,0-2.11,3.71H45.3a1.2,1.2,0,1,0,0,2.39H55.39a16.37,16.37,0,0,0,.71,9.93H42.05a4,4,0,0,1-4-4V61.67h-2.4v4.38a6.4,6.4,0,0,0,6.42,6.42H57.29A16.45,16.45,0,1,0,74.76,47.91Zm-9.33-12A2.89,2.89,0,0,1,62.55,33V27.26l8.18,8.6Zm6,42.22a14.06,14.06,0,1,1,14-14A14.06,14.06,0,0,1,71.4,78.08Z" fill="#d5274e"/>
          <path d="M45.3,48.07H57.42a1.2,1.2,0,0,0,0-2.4H45.3a1.2,1.2,0,1,0,0,2.4Z" fill="#d5274e"/>
          <path d="M77.52,63.77l-4.92,5.3V56a1.2,1.2,0,1,0-2.39,0V69.07l-4.95-5.3a1.22,1.22,0,0,0-1.7-.06,1.19,1.19,0,0,0-.06,1.69l7,7.53a1.2,1.2,0,0,0,.87.38,1.17,1.17,0,0,0,.87-.38l7-7.53a1.19,1.19,0,1,0-1.74-1.63Z" fill="#d5274e"/>
        </g>
      </g>
      <ellipse cx="16.45" cy="15.99" rx="16.45" ry="15.99" fill="#d5274e"/>
    </g>
  </g>
</svg>
