<svg xmlns="http://www.w3.org/2000/svg" width="938.34" height="131.56" viewBox="0 0 938.34 131.56">
  <title>when-bg</title>
  <g id="Слой_2" data-name="Слой 2">
    <g id="Слой_1-2" data-name="Слой 1">
      <path d="M925.9,131.56H12.44A12.45,12.45,0,0,1,0,119.13V28.35A12.45,12.45,0,0,1,12.44,15.91H23a.66.66,0,0,1,0,1.31H12.44A11.15,11.15,0,0,0,1.3,28.35v90.78a11.15,11.15,0,0,0,11.14,11.13H925.9A11.15,11.15,0,0,0,937,119.13V28.35A11.15,11.15,0,0,0,925.9,17.22H189.38a.66.66,0,0,1,0-1.31H925.9a12.45,12.45,0,0,1,12.44,12.44v90.78A12.45,12.45,0,0,1,925.9,131.56Z" fill="#181818"/>
      <g>
        <path d="M51.59,11.91H45.83V23H44.72V.13h1.11V10.9h5.76L60.2.13h1.28l-9,11.2L62.1,23H60.79Z" fill="#898888"/>
        <path d="M70.07,21.67a11.07,11.07,0,0,1-4.24-4.16,11.64,11.64,0,0,1-1.54-5.92,11.68,11.68,0,0,1,1.54-5.93,11,11,0,0,1,4.24-4.15,12.12,12.12,0,0,1,6-1.51,12.25,12.25,0,0,1,6.06,1.51,11,11,0,0,1,4.25,4.15A11.58,11.58,0,0,1,88,11.59a11.54,11.54,0,0,1-1.54,5.92,11,11,0,0,1-4.25,4.16,12.35,12.35,0,0,1-6.06,1.5A12.22,12.22,0,0,1,70.07,21.67Zm11.51-.89A10.11,10.11,0,0,0,85.44,17a10.56,10.56,0,0,0,1.41-5.4,10.51,10.51,0,0,0-1.41-5.4,10.13,10.13,0,0,0-3.86-3.8,11.49,11.49,0,0,0-10.92,0,10.11,10.11,0,0,0-3.85,3.8,10.6,10.6,0,0,0-1.4,5.4,10.66,10.66,0,0,0,1.4,5.4,10.08,10.08,0,0,0,3.85,3.79,11.49,11.49,0,0,0,10.92,0Z" fill="#898888"/>
        <path d="M108.28,1.15H95.55V23H94.44V.13h13.88Z" fill="#898888"/>
        <path d="M129.82,22v6.35h-1.08V23H107l0,5.34h-1L106,22h1.28c1.52-.13,2.59-1.44,3.2-3.91a52,52,0,0,0,1.12-10.4l.23-7.59h14.46V22Zm-18.13-4.75Q111,21,109.33,22h15.81V1.15H112.8l-.23,6.64A64.89,64.89,0,0,1,111.69,17.28Z" fill="#898888"/>
        <path d="M149.85,16.33H136.14L133.06,23h-1.21L142.45.13h1.08L154.14,23h-1.21Zm-.43-.95L143,1.41l-6.45,14Z" fill="#898888"/>
      </g>
    </g>
  </g>
</svg>
